<svg xmlns="http://www.w3.org/2000/svg" viewBox="0 0 24 24">
  <path d="M4 2L4 4L3 4C2.448 4 2 4.448 2 5L2 6C2 6.552 2.448 7 3 7L7 7C7.552 7 8 6.552 8 6L8 5C8 4.448 7.552 4 7 4L6 4L6 2L4 2 z M 11 2L11 14L10 14C9.448 14 9 14.448 9 15L9 16C9 16.552 9.448 17 10 17L14 17C14.552 17 15 16.552 15 16L15 15C15 14.448 14.552 14 14 14L13 14L13 2L11 2 z M 18 2L18 9L17 9C16.448 9 16 9.448 16 10L16 11C16 11.552 16.448 12 17 12L21 12C21.552 12 22 11.552 22 11L22 10C22 9.448 21.552 9 21 9L20 9L20 2L18 2 z M 4 9L4 22L6 22L6 9L4 9 z M 18 14L18 22L20 22L20 14L18 14 z M 11 19L11 22L13 22L13 19L11 19 z" fill="#5B5B5B" />
</svg>