<svg xmlns="http://www.w3.org/2000/svg" viewBox="0 0 32 32">
  <path d="M18 2.125C17.890625 2.1875 17.160156 2.523438 16.28125 2.84375C15.402344 3.164063 14.320313 3.535156 13.25 3.90625C12.179688 4.277344 11.097656 4.621094 10.25 4.9375C9.824219 5.097656 9.460938 5.242188 9.15625 5.375C8.851563 5.507813 8.652344 5.582031 8.34375 5.84375C7.980469 6.15625 7.730469 6.503906 7.34375 7.03125C6.957031 7.558594 6.511719 8.210938 6.09375 8.875C5.675781 9.539063 5.273438 10.230469 4.96875 10.84375C4.664063 11.457031 4.40625 11.878906 4.40625 12.59375C4.40625 12.933594 4.453125 12.972656 4.5 13.15625C4.546875 13.339844 4.605469 13.582031 4.6875 13.84375C4.847656 14.363281 5.066406 15.019531 5.34375 15.75C5.835938 17.054688 6.472656 18.542969 7.1875 19.78125C6.46875 20.828125 6 22.082031 6 23.5C6 27.054688 8.945313 30 12.5 30C16.054688 30 19 27.054688 19 23.5C19 22 18.441406 20.59375 17.53125 19.46875C17.886719 19.324219 18.261719 19.167969 18.71875 18.96875C19.867188 18.46875 21.261719 17.730469 22.53125 16.40625C22.53125 16.394531 22.53125 16.386719 22.53125 16.375C23.859375 14.925781 24.4375 12.949219 25.03125 11.21875C25.625 9.488281 26.257813 8.066406 27.0625 7.53125L25.9375 5.875C24.34375 6.9375 23.730469 8.792969 23.125 10.5625C22.523438 12.320313 21.925781 14.046875 21.0625 15C20.035156 16.074219 18.933594 16.675781 17.90625 17.125C16.886719 17.570313 16.007813 17.785156 15.21875 18.40625C15.210938 18.410156 15.195313 18.402344 15.1875 18.40625C14.609375 18.867188 13.917969 19.550781 13.15625 20.09375C12.394531 20.636719 11.597656 21 11 21C10.445313 21 9.640625 20.394531 9.59375 19.8125C9.550781 19.375 9.691406 18.945313 10.0625 18.46875C10.433594 17.992188 11.015625 17.523438 11.625 17.125C12.847656 16.328125 14.15625 15.84375 14.15625 15.84375C14.332031 15.773438 14.484375 15.652344 14.59375 15.5C14.59375 15.5 15.152344 14.75 15.78125 13.9375C16.410156 13.125 17.226563 12.164063 17.34375 12.0625C17.6875 11.757813 17.78125 11.253906 17.566406 10.847656C17.351563 10.441406 16.882813 10.230469 16.4375 10.34375C16.4375 10.34375 15.765625 10.519531 14.96875 10.5625C14.171875 10.605469 13.378906 10.421875 13.09375 10.15625C12.863281 9.933594 12.539063 9.835938 12.226563 9.890625C11.910156 9.945313 11.640625 10.148438 11.5 10.4375C11.5 10.4375 10.441406 12.179688 9.28125 12.4375C8.964844 12.515625 8.703125 12.742188 8.585938 13.046875C8.464844 13.351563 8.503906 13.695313 8.6875 13.96875C8.6875 13.96875 9.046875 14.441406 9.21875 15.65625C9.25 15.867188 9.347656 16.066406 9.5 16.21875C9.5 16.21875 9.546875 16.265625 9.5625 16.28125C9.191406 16.59375 8.804688 16.859375 8.5 17.25C8.425781 17.347656 8.351563 17.457031 8.28125 17.5625C7.886719 16.75 7.523438 15.871094 7.21875 15.0625C6.957031 14.367188 6.742188 13.722656 6.59375 13.25C6.519531 13.011719 6.472656 12.824219 6.4375 12.6875C6.429688 12.652344 6.410156 12.628906 6.40625 12.59375C6.40625 12.554688 6.40625 12.582031 6.40625 12.5625C6.417969 12.625 6.511719 12.199219 6.75 11.71875C7.007813 11.199219 7.386719 10.5625 7.78125 9.9375C8.175781 9.3125 8.582031 8.699219 8.9375 8.21875C9.277344 7.753906 9.609375 7.394531 9.625 7.375C9.625 7.375 9.648438 7.382813 9.65625 7.375C9.71875 7.34375 9.84375 7.273438 9.96875 7.21875C10.214844 7.109375 10.5625 6.964844 10.96875 6.8125C11.777344 6.507813 12.808594 6.148438 13.875 5.78125C14.941406 5.414063 16.03125 5.046875 16.9375 4.71875C17.84375 4.390625 18.507813 4.160156 19 3.875 Z M 12.75 12.15625C13.289063 12.371094 13.8125 12.519531 14.34375 12.53125C14.289063 12.601563 14.242188 12.648438 14.1875 12.71875C13.613281 13.460938 13.230469 13.980469 13.125 14.125C12.914063 14.203125 12.109375 14.621094 11.1875 15.125C11.125 15.050781 11.105469 15.015625 11.0625 14.96875C10.929688 14.402344 10.867188 14.257813 10.71875 13.9375C11.8125 13.378906 12.371094 12.746094 12.75 12.15625 Z M 15.8125 20.5C16.546875 21.296875 17 22.371094 17 23.5C17 25.945313 14.945313 28 12.5 28C10.054688 28 8 25.945313 8 23.5C8 22.882813 8.125 22.304688 8.34375 21.78125C9 22.550781 9.992188 23 11 23C12.300781 23 13.398438 22.375 14.3125 21.71875C14.902344 21.296875 15.390625 20.867188 15.8125 20.5Z" fill="#5B5B5B" />
</svg>