<svg xmlns="http://www.w3.org/2000/svg" viewBox="0 0 32 32">
  <path d="M16 4C9.382813 4 4 9.382813 4 16C4 22.617188 9.382813 28 16 28C22.617188 28 28 22.617188 28 16C28 9.382813 22.617188 4 16 4 Z M 16 6C21.535156 6 26 10.464844 26 16C26 21.535156 21.535156 26 16 26C10.464844 26 6 21.535156 6 16C6 10.464844 10.464844 6 16 6 Z M 16 10C13.800781 10 12 11.800781 12 14L14 14C14 12.882813 14.882813 12 16 12C17.117188 12 18 12.882813 18 14C18 14.765625 17.507813 15.445313 16.78125 15.6875L16.375 15.8125C15.558594 16.082031 15 16.863281 15 17.71875L15 19L17 19L17 17.71875L17.40625 17.59375C18.945313 17.082031 20 15.621094 20 14C20 11.800781 18.199219 10 16 10 Z M 15 20L15 22L17 22L17 20Z" fill="#5B5B5B" />
</svg>