<svg xmlns="http://www.w3.org/2000/svg" viewBox="0 0 32 32">
  <path d="M16 7C9.617188 7 4.03125 9.0625 4.03125 9.0625L3.4375 9.28125L3.375 9.875L2.03125 20.125C1.667969 22.960938 3.695313 25.605469 6.53125 25.96875C9.171875 26.308594 11.539063 24.527344 12.15625 22L19.84375 22C20.464844 24.527344 22.828125 26.308594 25.46875 25.96875C28.304688 25.605469 30.332031 22.960938 29.96875 20.125L28.625 9.875L28.5625 9.28125L27.96875 9.0625C27.96875 9.0625 22.382813 7 16 7 Z M 16 9C21.484375 9 26.007813 10.523438 26.75 10.78125L27.96875 20.40625C28.195313 22.167969 26.980469 23.742188 25.21875 23.96875C23.457031 24.195313 21.851563 22.980469 21.625 21.21875L21.59375 20.875L21.46875 20L10.53125 20L10.40625 20.875L10.375 21.21875C10.148438 22.980469 8.542969 24.195313 6.78125 23.96875C5.019531 23.742188 3.804688 22.167969 4.03125 20.40625L5.25 10.78125C5.992188 10.523438 10.515625 9 16 9 Z M 9 12L9 14L7 14L7 16L9 16L9 18L11 18L11 16L13 16L13 14L11 14L11 12 Z M 22 12C21.449219 12 21 12.449219 21 13C21 13.550781 21.449219 14 22 14C22.550781 14 23 13.550781 23 13C23 12.449219 22.550781 12 22 12 Z M 20 14C19.449219 14 19 14.449219 19 15C19 15.550781 19.449219 16 20 16C20.550781 16 21 15.550781 21 15C21 14.449219 20.550781 14 20 14 Z M 24 14C23.449219 14 23 14.449219 23 15C23 15.550781 23.449219 16 24 16C24.550781 16 25 15.550781 25 15C25 14.449219 24.550781 14 24 14 Z M 22 16C21.449219 16 21 16.449219 21 17C21 17.550781 21.449219 18 22 18C22.550781 18 23 17.550781 23 17C23 16.449219 22.550781 16 22 16Z" fill="#5B5B5B" />
</svg>