<?xml version="1.0" encoding="UTF-8"?>
<svg xmlns="http://www.w3.org/2000/svg" xmlns:xlink="http://www.w3.org/1999/xlink" width="52pt" height="52pt" viewBox="0 0 52 52" version="1.1">
<g id="surface1">
<path style=" stroke:none;fill-rule:nonzero;fill:#FFA500;fill-opacity:1;" d="M 20 0 L 0 4 L 6.0625 10.0625 C 2.546875 14.445313 0.375 19.945313 0.375 26 C 0.375 40.148438 11.84375 51.625 26 51.625 C 40.15625 51.625 51.625 40.148438 51.625 26 C 51.625 15.390625 45.1875 6.265625 36 2.375 L 36 8.5625 C 42.054688 12.039063 46.125 18.523438 46.125 26 C 46.125 37.125 37.125 46.125 26 46.125 C 14.875 46.125 5.875 37.125 5.875 26 C 5.875 21.453125 7.390625 17.304688 9.9375 13.9375 L 16 20 Z "/>
</g>
</svg>
